<?xml version="1.0" encoding="utf-8"?>
<!-- Generator: Adobe Illustrator 18.1.1, SVG Export Plug-In . SVG Version: 6.00 Build 0)  -->
<svg version="1.1" id="Layer_1" xmlns="http://www.w3.org/2000/svg" xmlns:xlink="http://www.w3.org/1999/xlink" x="0px" y="0px"
	 viewBox="0 0 263.6 90.6" enable-background="new 0 0 263.6 90.6" xml:space="preserve">
<g>
	<polyline fill="#F5C701" points="11.9,44.4 11.9,60 26.4,60 11.9,44.4 	"/>
	<polyline opacity="0.302" fill="#F5C701" points="24.8,27.1 10.3,27.1 24.8,42.6 24.8,27.1 	"/>
	<polyline opacity="0.6" fill="#F5C701" points="36.7,27.1 24.8,27.1 24.8,42.6 10.3,27.1 0,27.1 0,60 11.9,60 11.9,44.4 26.4,60 
		36.7,60 36.7,27.1 	"/>
	<polyline opacity="0.302" fill="#F5C701" points="56.6,39.3 53.2,48.8 60,48.8 56.6,39.3 	"/>
	<polygon fill="#F5C701" points="73.4,55.8 75.2,60 75.9,60 	"/>
	<polygon fill="#F5C701" points="37.2,60 37.9,60 39.7,55.7 	"/>
	<path fill="#F5C701" d="M58.2,29.4l-1.6-2.8L55,29.4L39.7,55.8L37.9,60h11.2H64h11.2l-1.8-4.2L58.2,29.4z M53.2,48.8l3.5-9.5
		l3.4,9.5H53.2z"/>
	<polyline opacity="0.302" fill="#F5C701" points="78.8,27.1 77.5,27.1 77.5,60 88,60 88,35.6 78.8,35.6 78.8,27.1 	"/>
	<polyline fill="#F5C701" points="110.4,27.1 109.4,27.1 109.4,35.6 99.9,35.6 99.9,60 110.4,60 110.4,27.1 	"/>
	<polyline opacity="0.6" fill="#F5C701" points="109.4,27.1 78.8,27.1 78.8,35.6 88,35.6 88,60 99.9,60 99.9,35.6 109.4,35.6 
		109.4,27.1 	"/>
	<path opacity="0.302" fill="#F5C701" d="M135.6,43.3L126.6,60c1.4,0.4,2.9,0.6,4.4,0.6c5,0,9.5-2.1,12.7-5.5L135.6,43.3"/>
	<path fill="#F5C701" d="M126.4,26.7c-7.3,2-12.7,8.7-12.7,16.7c0,8,5.5,14.8,12.9,16.7l8.9-16.8L126.4,26.7"/>
	<path opacity="0.6" fill="#F5C701" d="M131,26c-1.6,0-3.1,0.2-4.6,0.6l9.2,16.6l11-7.6C143.7,30,137.8,26,131,26"/>
	<path fill="#F5C701" d="M154.2,53.9V32.2H176v21.7H154.2 M165.4,26c-9.5,0-17.3,7.7-17.3,17.3s7.7,17.3,17.3,17.3
		c9.5,0,17.3-7.7,17.3-17.3S174.9,26,165.4,26"/>
	<polyline opacity="0.302" fill="#F5C701" points="176,32.3 154.3,32.3 154.3,53.9 176,53.9 176,32.3 	"/>
	<path fill="#F5C701" d="M154.3,53.9V32.3H176v21.6H154.3 M176,32.2h-21.7v21.7H176V32.2"/>
	<path fill="#F5C701" d="M211.6,32c-0.4-1.1-1.1-2.1-1.9-2.9c-0.8-0.9-1.8-1.6-2.9-2.1c-1.1-0.5-2.2-0.7-3.4-0.7
		c-1.3,0-2.5,0.2-3.5,0.6c-1.1,0.4-2,1-2.9,1.9v0l0,0v0c-0.9,0.9-1.6,2.1-2.1,3.4c-0.5,1.3-0.6,2.8-0.6,4.4v2.1h7.1v-2.4
		c0-0.6,0-1.1,0.2-1.4l0,0l0,0c0.1-0.3,0.2-0.6,0.4-0.8c0.2-0.3,0.4-0.5,0.6-0.6c0.2-0.1,0.4-0.2,0.8-0.2c0.3,0,0.6,0.1,0.8,0.2
		c0.2,0.1,0.4,0.2,0.6,0.5c0.2,0.2,0.3,0.5,0.4,0.8c0.1,0.3,0.1,0.6,0.1,1c0,1-0.2,2.1-0.8,3.4c-0.7,1.6-1.8,3.4-3.2,5.4l0,0
		c-1.6,2.2-2.7,3.8-3.4,4.8l0,0l-1.3,1.8l0,0c-0.4,0.6-0.8,1.2-1.1,1.7l0,0v0c-0.4,0.5-0.6,1-0.8,1.3c-0.1,0.2-0.2,0.3-0.2,0.4
		c0,0.1-0.1,0.1-0.1,0.2c0,0,0.1,0.1,0,0.2c0,0.1,0,0.2,0,0.3v5.6h17.3v-7.1h-8.4c0.1-0.3,0.3-0.4,0.4-0.6l0-0.1l0.9-1.4h0
		c1-1.4,1.8-2.7,2.3-3.4l0,0c1-1.4,1.8-2.5,2.4-3.5c0.6-1,1.1-1.8,1.4-2.4c1-2.2,1.6-4.5,1.6-6.8C212.3,34.2,212.1,33.1,211.6,32z"
		/>
	<polygon fill="#F5C701" points="210.7,42.2 210.7,42.2 210.7,42.2 	"/>
	<path fill="#F5C701" d="M229,28.5c-0.8-0.9-1.8-1.5-2.9-1.9c-1.1-0.4-2.2-0.7-3.4-0.7c-1.2,0-2.3,0.2-3.4,0.6
		c-1.1,0.4-2,1.1-2.9,1.9c-0.8,0.8-1.4,1.8-1.9,2.9c-0.4,1.1-0.6,2.2-0.6,3.4v17.5c0,1.2,0.1,2.3,0.6,3.4c0.4,1.1,1,2,1.9,2.9
		c0.8,0.8,1.8,1.5,2.8,1.9c1.1,0.4,2.2,0.6,3.4,0.6c1.2,0,2.3-0.2,3.4-0.6c1-0.4,2-1.1,2.8-1.9c0.8-0.8,1.4-1.8,1.9-2.9
		c0.4-1.1,0.6-2.2,0.6-3.4V34.8c0-1.2-0.1-2.3-0.5-3.4C230.4,30.3,229.8,29.4,229,28.5z M221.2,34.7c0-0.2,0-0.4,0-0.6
		c0.1-0.2,0.1-0.3,0.3-0.5c0.2-0.2,0.3-0.3,0.5-0.4c0.2-0.1,0.4-0.1,0.6-0.1c0.2,0,0.4,0,0.6,0.1c0.2,0.1,0.3,0.2,0.5,0.4
		c0.2,0.2,0.3,0.3,0.4,0.5c0.1,0.2,0.1,0.4,0.1,0.6v17.5c0,0.2-0.1,0.4-0.1,0.6c-0.1,0.2-0.2,0.3-0.4,0.5c-0.2,0.2-0.3,0.3-0.5,0.4
		c-0.2,0.1-0.4,0.1-0.6,0.1s-0.4,0-0.6-0.1c-0.2-0.1-0.3-0.2-0.5-0.4v0c-0.2-0.2-0.2-0.3-0.3-0.5c-0.1-0.2,0-0.4,0-0.6V34.7z"/>
	<path fill="#F5C701" d="M238.8,27.1c-0.4,0.8-1,1.6-1.9,2.2c-0.9,0.6-1.8,1-2.8,1.1l-1.1,0.1v5.4h3.7v24.8h1.6h6.2V26.4h-5.5
		L238.8,27.1z"/>
	<path fill="#F5C701" d="M263.2,41.6c-0.2-1-0.7-1.9-1.2-2.7l0,0c-0.6-0.9-1.4-1.6-2.4-2.1c-1-0.5-2.1-0.7-3.3-0.7
		c-0.7,0-1.4,0.1-2.1,0.4l0,0l0,0c-0.1,0.1-0.4,0.1-0.4,0.2v-3.5h9.5v-6.8h-16.6v19.7h7.1v-2c0-0.4,0.1-0.8,0.4-1.2
		c0.1-0.2,0.2-0.2,0.3-0.3c0.1-0.1,0.3-0.1,0.6-0.1c0.2,0,0.3,0,0.4,0.1c0.1,0,0.1,0.1,0.2,0.1c0.2,0.2,0.3,0.4,0.4,0.6
		c0.1,0.2,0.1,0.5,0.1,0.8v7.8c0,0.4,0,0.8-0.1,1c-0.1,0.2-0.1,0.3-0.2,0.4c-0.1,0.1-0.2,0.3-0.5,0.3c-0.2,0.1-0.5,0.2-1,0.2
		c-0.1,0-0.2,0-0.3-0.1l0,0l0,0c-0.1-0.1-0.2-0.1-0.3-0.2c-0.1-0.1-0.2-0.3-0.3-0.5c-0.1-0.2-0.2-0.5-0.2-0.9l-0.1-2.3l-6.8,0.5v1.9
		c0,1.2,0.1,2.3,0.5,3.3c0.4,1,0.9,2,1.7,2.8c0.8,0.9,1.7,1.6,2.7,2c1,0.5,2.2,0.7,3.4,0.7c1.2,0,2.4-0.2,3.4-0.6
		c1.1-0.4,2-1.1,2.8-1.9c0.9-0.9,1.6-1.9,2-3c0.4-1.1,0.7-2.4,0.7-3.7V45C263.6,43.8,263.4,42.6,263.2,41.6z"/>
	<polygon fill="#F5C701" points="248.5,58.4 248.4,58.4 248.4,58.4 	"/>
	<polygon fill="#F5C701" points="260.9,58.6 260.9,58.6 260.8,58.6 	"/>
	<path fill="#F5C701" d="M86,3.9c0,1-0.5,2-1.7,2.6c1.6,0.5,2.1,2.1,2.1,3c0,3-2.2,3.9-5,3.9c-2.1,0-4.2,0-6.3,0V0.1
		c2.1,0,4.2,0,6.3,0C84.1,0.1,86,1.2,86,3.9z M77.6,5.4h3.8c1.6,0,2.1-0.7,2.1-1.4c0-0.6-0.5-1.6-2.1-1.6h-3.8V5.4z M77.6,11h3.8
		c1,0,2.5-0.3,2.5-1.6c0-1.2-1.5-1.8-2.5-1.8h-3.8V11z"/>
	<path fill="#F5C701" d="M90.6,1.4c0,1.8-2.7,1.8-2.7,0C87.8-0.5,90.6-0.5,90.6,1.4z M88,4v9.4h2.3V4H88z"/>
	<path fill="#F5C701" d="M94.4,9.5c0.2,1.2,1.2,2,2.8,2c0.9,0,2-0.3,2.5-0.9l1.5,1.5c-1,1-2.6,1.5-4,1.5c-3.2,0-5.2-2-5.2-5
		c0-2.9,1.9-4.9,5-4.9c3.1,0,5.1,1.9,4.7,5.8H94.4z M99.5,7.6c-0.2-1.2-1.1-1.8-2.4-1.8c-1.3,0-2.3,0.6-2.6,1.8H99.5z"/>
	<path fill="#F5C701" d="M110.5,13.4V8.5c0-1.4-0.8-2.5-2.3-2.5c-1.4,0-2.4,1.2-2.4,2.6v4.8h-2.3V4h2.1l0.2,1.3
		c1-0.9,1.9-1.4,3.1-1.4c2.2,0,4,1.7,4,4.6v4.9H110.5z"/>
	<polygon fill="#F5C701" points="123.9,4 119.9,13.4 117.4,13.4 113.4,4 115.9,4 117.2,7.1 118.7,11 120.1,7.1 121.4,4 	"/>
	<path fill="#F5C701" d="M127,9.5c0.2,1.2,1.2,2,2.8,2c0.9,0,2-0.3,2.5-0.9l1.5,1.5c-1,1-2.6,1.5-4,1.5c-3.2,0-5.2-2-5.2-5
		c0-2.9,1.9-4.9,5-4.9c3.1,0,5.1,1.9,4.7,5.8H127z M132.1,7.6c-0.2-1.2-1.1-1.8-2.4-1.8c-1.3,0-2.3,0.6-2.6,1.8H132.1z"/>
	<path fill="#F5C701" d="M143,13.4V8.5c0-1.4-0.8-2.5-2.3-2.5c-1.4,0-2.4,1.2-2.4,2.6v4.8h-2.3V4h2.1l0.2,1.3c1-0.9,1.9-1.4,3.1-1.4
		c2.2,0,4,1.7,4,4.6v4.9H143z"/>
	<path fill="#F5C701" d="M149.9,1.4c0,1.8-2.7,1.8-2.7,0C147.1-0.5,149.9-0.5,149.9,1.4z M147.3,4v9.4h2.3V4H147.3z"/>
	<path fill="#F5C701" d="M161.5,0.1v13.3h-2.2l-0.2-1.3c-0.7,1.1-1.9,1.5-3,1.5c-2.8,0-4.8-1.8-4.8-4.9c0-3.2,2-4.9,4.8-4.9
		c1,0,2.5,0.5,3.1,1.5V0.1H161.5z M153.6,8.7c0,1.6,1.2,2.8,2.7,2.8c1.5,0,2.7-1.1,2.7-2.8c0-1.6-1.3-2.7-2.7-2.7
		C154.8,5.9,153.6,7,153.6,8.7z"/>
	<path fill="#F5C701" d="M172.8,8.7c0,2.7-1.8,4.9-4.9,4.9c-3,0-4.9-2.2-4.9-4.9c0-2.7,1.9-4.9,4.9-4.9C170.9,3.8,172.8,6,172.8,8.7
		z M165.4,8.7c0,1.4,0.9,2.8,2.6,2.8c1.7,0,2.5-1.3,2.5-2.8c0-1.4-1-2.8-2.5-2.8C166.3,5.9,165.4,7.3,165.4,8.7z"/>
	<path fill="#F5C701" d="M185.7,4h2.2v9.4h-2.2l-0.1-1.4c-0.5,1.1-2,1.6-3,1.7c-2.8,0-4.8-1.7-4.8-5c0-3.2,2.1-4.9,4.9-4.9
		c1.3,0,2.5,0.6,3,1.5L185.7,4z M180.1,8.7c0,1.8,1.2,2.9,2.8,2.9c3.7,0,3.7-5.7,0-5.7C181.3,5.8,180.1,6.9,180.1,8.7z"/>
	<polygon fill="#F5C701" points="51.7,82.5 56,82.5 56,83 51.7,83 51.7,85.9 56.4,85.9 56.4,86.5 51.1,86.5 51.1,79 56.2,79 
		56.2,79.6 51.7,79.6 	"/>
	<rect x="57.5" y="79" fill="#F5C701" width="0.5" height="7.5"/>
	<path fill="#F5C701" d="M62.1,83.9c0-1.6,1.2-2.7,2.7-2.7s2.8,0.9,2.6,3h-4.7c0.1,1.2,1.1,1.9,2.1,1.9c0.7,0,1.5-0.3,1.9-0.8
		l0.4,0.3c-0.5,0.7-1.4,1-2.3,1C63.3,86.6,62.1,85.5,62.1,83.9z M67,83.6c0-1.3-0.9-2-2.1-2c-1.1,0-2,0.7-2.1,2H67z"/>
	<polygon fill="#F5C701" points="68.2,81.2 68.7,81.2 70.6,85.9 72.6,81.2 73.1,81.2 70.9,86.5 70.4,86.5 	"/>
	<path fill="#F5C701" d="M73.7,83.9c0-1.6,1.2-2.7,2.7-2.7c1.5,0,2.8,0.9,2.6,3h-4.7c0.1,1.2,1.1,1.9,2.1,1.9c0.7,0,1.5-0.3,1.9-0.8
		l0.4,0.3c-0.5,0.7-1.4,1-2.3,1C74.9,86.6,73.7,85.5,73.7,83.9z M78.5,83.6c0-1.3-0.9-2-2.1-2c-1.1,0-2,0.7-2.1,2H78.5z"/>
	<path fill="#F5C701" d="M80.8,81.2v0.9c0.4-0.7,1.1-1,1.9-1c1.4,0,2.4,0.9,2.4,2.3v3h-0.5v-3c0-1.2-0.7-1.8-1.9-1.8
		c-1.1,0-1.8,0.8-1.8,1.9v2.9h-0.5v-5.3H80.8z"/>
	<path fill="#F5C701" d="M87.4,79.6v1.6h1.8v0.4h-1.8v3.2c0,0.7,0.1,1.2,1,1.2c0.3,0,0.5-0.1,0.8-0.2l0.2,0.4
		c-0.3,0.2-0.7,0.3-1,0.3c-1.1,0-1.5-0.7-1.5-1.7v-3.2h-1.1v-0.4h1.1v-1.5L87.4,79.6z"/>
	<path fill="#F5C701" d="M90.2,83.9c0-1.7,1.2-2.7,2.7-2.7s2.7,1.1,2.7,2.7c0,1.7-1.2,2.7-2.7,2.7S90.2,85.5,90.2,83.9z M95,83.9
		c0-1.4-1-2.2-2.2-2.2c-1.2,0-2.2,0.9-2.2,2.2c0,1.4,1,2.2,2.2,2.2C94.1,86.1,95,85.2,95,83.9z"/>
	<path fill="#F5C701" d="M104,86.5V83c0-0.9-0.5-1.7-1.3-1.7c-0.9,0-1.4,0.8-1.4,1.7v3.5h-1.6v-6.6h1.5l0.1,0.8
		c0.3-0.7,1.1-0.9,1.7-0.9c0.8,0,1.6,0.3,1.9,1.2c0.6-0.9,1.3-1.2,2.2-1.2c1.9,0,2.8,1.1,2.8,3.1v3.5h-1.6v-3.5
		c0-0.9-0.4-1.6-1.2-1.6c-0.9,0-1.4,0.8-1.4,1.6v3.5H104z"/>
	<path fill="#F5C701" d="M116.7,80.8l0.1-0.9h1.6v6.6h-1.5l-0.1-1c-0.4,0.8-1.4,1.1-2.1,1.2c-1.9,0-3.4-1.2-3.4-3.5
		c0-2.3,1.5-3.4,3.4-3.4C115.5,79.8,116.3,80.2,116.7,80.8z M114.8,81.2c-1.1,0-1.9,0.7-1.9,2c0,1.3,0.9,2,1.9,2
		C117.3,85.2,117.3,81.2,114.8,81.2z M116.6,77h-1.9l-1,1.8v0.1h1.4L116.6,77L116.6,77z"/>
	<path fill="#F5C701" d="M124,81.7c-0.5-0.4-1-0.6-1.6-0.6c-0.8,0-1.2,0.2-1.2,0.7c0,0.4,0.4,0.7,1.2,0.7c1.2,0.1,2.8,0.4,2.8,2.1
		c0,1.2-0.9,2.2-2.8,2.2c-1,0-2.1-0.2-3-1.2l0.8-1.2c0.5,0.5,1.5,0.9,2.3,0.9c0.6,0,1.2-0.3,1.2-0.8c0-0.5-0.4-0.6-1.3-0.7
		c-1.2-0.1-2.7-0.5-2.7-2c0-1.5,1.6-2.1,2.8-2.1c1,0,1.8,0.2,2.6,0.9L124,81.7z"/>
	<path fill="#F5C701" d="M134.1,79.3l1.2,0.9l-0.7,0.9c0.5,0.6,0.7,1.2,0.7,1.9c0,0.8-0.3,2-1.4,2.5c1.1,0.5,1.4,1.3,1.4,2.2
		c0,1.8-1.4,2.9-3.3,2.9c-1.9,0-3.3-1.2-3.3-2.9h1.6c0,0.9,0.8,1.4,1.7,1.4c0.9,0,1.7-0.5,1.7-1.4c0-0.9-0.9-1.3-1.7-1.3
		c-2.1,0-3.3-1.3-3.3-3.3c0-2.1,1.5-3.3,3.3-3.3c0.5,0,1.1,0.1,1.5,0.4L134.1,79.3z M130.2,83c0,1.1,0.8,1.8,1.7,1.8
		c0.9,0,1.7-0.7,1.7-1.8c0-1.1-0.8-1.9-1.7-1.9C131,81.2,130.2,81.9,130.2,83z"/>
	<path fill="#F5C701" d="M137.8,79.9l0.1,0.8c0.5-0.8,1.2-0.9,1.9-0.9c0.7,0,1.3,0.3,1.7,0.6l-0.7,1.4c-0.3-0.3-0.6-0.4-1.2-0.4
		c-0.9,0-1.6,0.5-1.6,1.7v3.5h-1.6v-6.6H137.8z"/>
	<path fill="#F5C701" d="M147.2,79.9h1.6v6.6h-1.5l-0.1-1c-0.4,0.8-1.4,1.1-2.1,1.2c-1.9,0-3.4-1.2-3.4-3.5c0-2.3,1.5-3.4,3.4-3.4
		c0.9,0,1.7,0.4,2.1,1.1L147.2,79.9z M143.3,83.2c0,1.3,0.9,2,1.9,2c2.6,0,2.6-4,0-4C144.2,81.2,143.3,81.9,143.3,83.2z"/>
	<path fill="#F5C701" d="M155,86.5v-3.4c0-1-0.5-1.8-1.6-1.8c-1,0-1.7,0.8-1.7,1.8v3.4h-1.6v-6.6h1.5l0.1,0.9c0.7-0.7,1.3-1,2.2-1
		c1.5,0,2.8,1.2,2.8,3.2v3.4H155z"/>
	<path fill="#F5C701" d="M164.8,77.2v9.3h-1.5l-0.1-0.9c-0.5,0.8-1.3,1.1-2.1,1.1c-1.9,0-3.4-1.3-3.4-3.4c0-2.3,1.4-3.4,3.3-3.4
		c0.7,0,1.8,0.4,2.2,1.1v-3.6H164.8z M159.3,83.2c0,1.1,0.8,1.9,1.9,1.9c1,0,1.9-0.7,1.9-1.9c0-1.1-0.9-1.9-1.9-1.9
		C160.2,81.3,159.3,82,159.3,83.2z"/>
	<path fill="#F5C701" d="M167.8,83.8c0.1,0.8,0.8,1.4,2,1.4c0.6,0,1.4-0.2,1.8-0.6l1,1c-0.7,0.7-1.8,1.1-2.8,1.1
		c-2.3,0-3.6-1.4-3.6-3.5c0-2,1.4-3.4,3.5-3.4c2.2,0,3.6,1.4,3.3,4.1H167.8z M171.4,82.4c-0.1-0.9-0.8-1.3-1.7-1.3
		c-0.9,0-1.6,0.4-1.8,1.3H171.4z"/>
	<path fill="#F5C701" d="M182.2,79v7.5h-0.5v-1.2c-0.4,0.8-1.3,1.2-2.2,1.2c-1.5,0-2.6-1-2.6-2.7c0-1.7,1.2-2.7,2.6-2.7
		c0.9,0,1.8,0.4,2.2,1.2V79H182.2z M177.4,83.9c0,1.5,1,2.2,2.2,2.2c1.2,0,2.2-0.9,2.2-2.2c0-1.3-0.9-2.2-2.2-2.2
		C178.3,81.6,177.4,82.4,177.4,83.9z"/>
	<path fill="#F5C701" d="M183.5,83.9c0-1.6,1.2-2.7,2.7-2.7c1.5,0,2.8,0.9,2.6,3h-4.7c0.1,1.2,1.1,1.9,2.1,1.9
		c0.7,0,1.5-0.3,1.9-0.8l0.4,0.3c-0.5,0.7-1.4,1-2.3,1C184.7,86.6,183.5,85.5,183.5,83.9z M188.3,83.6c0-1.3-0.9-2-2.1-2
		c-1.1,0-2,0.7-2.1,2H188.3z"/>
	<rect x="190.1" y="79" fill="#F5C701" width="0.5" height="7.5"/>
	<path fill="#F5C701" d="M200.1,81.2c0,1.8,0,3.5,0,5.3h-0.5v-1.1c-0.5,0.8-1.3,1.2-2.2,1.2c-1.5,0-2.7-1.1-2.7-2.7
		c0-1.6,1.2-2.7,2.7-2.7c0.9,0,1.7,0.4,2.2,1.2v-1.2H200.1z M195.3,83.9c0,1.3,1,2.2,2.2,2.2c2.9,0,2.9-4.4,0-4.4
		C196.3,81.7,195.3,82.5,195.3,83.9z"/>
	<path fill="#F5C701" d="M202,81.2v0.9c0.4-0.7,1.1-1,1.9-1c1.4,0,2.4,0.9,2.4,2.3v3h-0.5v-3c0-1.2-0.7-1.8-1.9-1.8
		c-1.1,0-1.8,0.8-1.8,1.9v2.9h-0.5v-5.3H202z M202.6,79.7c0.1-0.6,0.7-0.8,1.2-0.6l0.4,0.2c0.3,0.1,0.6,0.1,0.6-0.3l0.4,0.1
		c-0.1,0.6-0.7,0.8-1.2,0.6l-0.4-0.2c-0.2-0.1-0.6-0.1-0.6,0.3L202.6,79.7z"/>
	<path fill="#F5C701" d="M207.4,83.9c0-1.7,1.2-2.7,2.7-2.7c1.5,0,2.7,1.1,2.7,2.7c0,1.7-1.2,2.7-2.7,2.7
		C208.6,86.6,207.4,85.5,207.4,83.9z M212.3,83.9c0-1.4-1-2.2-2.2-2.2c-1.2,0-2.2,0.9-2.2,2.2c0,1.4,1,2.2,2.2,2.2
		C211.3,86.1,212.3,85.2,212.3,83.9z"/>
</g>
</svg>
