<?xml version="1.0" encoding="utf-8"?>
<!-- Generator: Adobe Illustrator 18.1.1, SVG Export Plug-In . SVG Version: 6.00 Build 0)  -->
<svg version="1.1" id="Layer_1" xmlns="http://www.w3.org/2000/svg" xmlns:xlink="http://www.w3.org/1999/xlink" x="0px" y="0px"
	 viewBox="0 0 139.7 139.6" enable-background="new 0 0 139.7 139.6" xml:space="preserve">
<g>
	
		<linearGradient id="SVGID_1_" gradientUnits="userSpaceOnUse" x1="3215.8718" y1="-321.1748" x2="3215.8718" y2="-440.6103" gradientTransform="matrix(-0.9998 -2.050000e-002 2.050000e-002 -0.9998 3292.8926 -245.1703)">
		<stop  offset="0" style="stop-color:#C58B02"/>
		<stop  offset="0.5" style="stop-color:#B37D00"/>
		<stop  offset="0.5661" style="stop-color:#B88101"/>
		<stop  offset="0.7518" style="stop-color:#C28902"/>
		<stop  offset="1" style="stop-color:#C58B02"/>
	</linearGradient>
	<circle opacity="0.51" fill="url(#SVGID_1_)" cx="69.9" cy="69.7" r="59.7"/>
	
		<linearGradient id="SVGID_2_" gradientUnits="userSpaceOnUse" x1="3215.8718" y1="-440.6103" x2="3215.8718" y2="-321.1748" gradientTransform="matrix(-0.9998 -2.050000e-002 2.050000e-002 -0.9998 3292.8926 -245.1703)">
		<stop  offset="0" style="stop-color:#FFFFFF;stop-opacity:0.77"/>
		<stop  offset="0.2033" style="stop-color:#FFFFFF;stop-opacity:0.65"/>
		<stop  offset="0.3448" style="stop-color:#FFFFFF;stop-opacity:0.65"/>
		<stop  offset="0.3462" style="stop-color:#FFFFFF;stop-opacity:0.65"/>
		<stop  offset="0.511" style="stop-color:#FFFFFF;stop-opacity:0"/>
		<stop  offset="0.512" style="stop-color:#FEFEFC;stop-opacity:3.322697e-004"/>
		<stop  offset="0.5319" style="stop-color:#EDE4CF;stop-opacity:6.847086e-003"/>
		<stop  offset="0.5533" style="stop-color:#DDCDA6;stop-opacity:1.383936e-002"/>
		<stop  offset="0.5773" style="stop-color:#CFB780;stop-opacity:2.169886e-002"/>
		<stop  offset="0.6035" style="stop-color:#C2A560;stop-opacity:3.026714e-002"/>
		<stop  offset="0.6324" style="stop-color:#B89644;stop-opacity:3.972449e-002"/>
		<stop  offset="0.6651" style="stop-color:#AF892E;stop-opacity:5.041554e-002"/>
		<stop  offset="0.7032" style="stop-color:#A9801D;stop-opacity:6.289047e-002"/>
		<stop  offset="0.7503" style="stop-color:#A47912;stop-opacity:7.830996e-002"/>
		<stop  offset="0.8165" style="stop-color:#A2750B;stop-opacity:9.994536e-002"/>
		<stop  offset="1" style="stop-color:#A17409;stop-opacity:0.16"/>
	</linearGradient>
	<circle opacity="0.7" fill="url(#SVGID_2_)" cx="69.9" cy="69.7" r="59.7"/>
	<g opacity="0.49">
		<linearGradient id="SVGID_3_" gradientUnits="userSpaceOnUse" x1="69.8466" y1="132.5871" x2="69.8466" y2="6.8547">
			<stop  offset="0" style="stop-color:#DC9900"/>
			<stop  offset="0.618" style="stop-color:#CA8C00"/>
			<stop  offset="0.6292" style="stop-color:#D49500"/>
			<stop  offset="0.9831" style="stop-color:#B57C00"/>
		</linearGradient>
		<path fill="url(#SVGID_3_)" d="M69.9,118.6c-18-0.2-34.3-9.9-43-25.7c-9.1-16.6-7.5-38.2,4.6-53.5c13.3-16.9,36.9-23.1,56.8-15.1
			c20.3,8.1,32.8,29.8,30.2,51.4C115.4,100.2,94.2,118.3,69.9,118.6c-13.5,0.2-13.5,21.2,0,21c30.7-0.4,58.3-20.5,67-50.2
			c8.7-29.5-3.6-61.6-29.1-78.4C82.3-5.8,48.5-2.8,25.1,16.1c-22.2,18-31,50.3-21,77.1c10.3,27.6,36.3,46,65.8,46.3
			C83.4,139.7,83.4,118.7,69.9,118.6z"/>
	</g>
	<circle fill="none" stroke="#E29E01" stroke-width="0.5878" stroke-miterlimit="1" cx="69.9" cy="69.7" r="59.7"/>
	<g opacity="0.58">
		<path fill="#BD8500" d="M129.6,70.9c-0.8,24.5-16.2,46.6-39.5,55c-22.6,8.1-48.6,1.6-64.7-16.3c-17.8-19.8-20.2-50-5.7-72.3
			C32.9,17,57.7,6.5,81.4,11.2C109.7,16.7,129.8,42.3,129.6,70.9c0,0,0,0.1,0,0.1c0.2-22.7-12.1-44-32.4-54.4
			C73.1,4.1,42.7,10,24.9,30.4c-14,16-18.4,39-11.4,59c8.9,25.5,34.6,42.1,61.5,39.9c30.3-2.5,53.7-28.1,54.6-58.3
			C129.6,71,129.6,70.9,129.6,70.9z"/>
	</g>
</g>
</svg>
