<?xml version="1.0" encoding="utf-8"?>
<!-- Generator: Adobe Illustrator 18.1.1, SVG Export Plug-In . SVG Version: 6.00 Build 0)  -->
<svg version="1.1" id="Layer_1" xmlns="http://www.w3.org/2000/svg" xmlns:xlink="http://www.w3.org/1999/xlink" x="0px" y="0px"
	 viewBox="0 0 20.6 20.6" enable-background="new 0 0 20.6 20.6" xml:space="preserve">
<path fill="#FFFFFF" d="M10.3,0C4.6,0,0,4.6,0,10.3s4.6,10.3,10.3,10.3c5.7,0,10.3-4.6,10.3-10.3S16,0,10.3,0z M14.8,8.4
	c0,0.1,0,0.2,0,0.3c0,3.1-2.3,6.6-6.6,6.6c-1.3,0-2.5-0.4-3.6-1c0.2,0,0.4,0,0.6,0c1.1,0,2.1-0.4,2.9-1c-1,0-1.9-0.7-2.2-1.6
	c0.1,0,0.3,0,0.4,0c0.2,0,0.4,0,0.6-0.1c-1.1-0.2-1.9-1.2-1.9-2.3c0,0,0,0,0,0c0.3,0.2,0.7,0.3,1.1,0.3c-0.6-0.4-1-1.1-1-1.9
	c0-0.4,0.1-0.8,0.3-1.2C6.6,8,8.3,8.9,10.2,9c0-0.2-0.1-0.3-0.1-0.5c0-1.3,1-2.3,2.3-2.3c0.7,0,1.3,0.3,1.7,0.7
	c0.5-0.1,1-0.3,1.5-0.6c-0.2,0.5-0.5,1-1,1.3c0.5-0.1,0.9-0.2,1.3-0.4C15.7,7.7,15.3,8.1,14.8,8.4z"/>
</svg>
